<svg xmlns="http://www.w3.org/2000/svg" width="42" height="48" viewBox="0 0 42 48"><style>.shp0{fill:#273d52}</style><path id="Path 62" d="M39.91,40.57c-0.32,0 -0.64,0.09 -0.92,0.25c-3,1.74 -6.42,2.67 -9.9,2.67c-8.41,0 -15.83,-5.48 -18.62,-13.16h16.95c1.01,0 1.83,-0.82 1.83,-1.83c0,-1.01 -0.82,-1.83 -1.83,-1.83h-17.86c-0.15,-1.1 -0.22,-1.96 -0.22,-2.93c0,-0.96 0.07,-1.83 0.22,-2.93h17.86c1.01,0 1.83,-0.82 1.83,-1.83c0,-1.01 -0.82,-1.83 -1.83,-1.83h-16.95c2.8,-8.05 10.22,-13.18 18.63,-13.18c3.48,0 6.9,0.92 9.9,2.66c0.28,0.16 0.6,0.25 0.92,0.25c0.65,0 1.26,-0.35 1.59,-0.91c0.51,-0.87 0.21,-2 -0.67,-2.5c-3.56,-2.06 -7.62,-3.15 -11.74,-3.15c-10.36,0 -19.56,6.96 -22.47,16.84h-4.47c-1.01,0 -1.83,0.82 -1.83,1.83c0,1.01 0.82,1.83 1.83,1.83h3.71c-0.12,1.1 -0.19,1.97 -0.19,2.93c0,0.96 0.06,1.83 0.19,2.93h-3.71c-1.01,0 -1.83,0.82 -1.83,1.83c0,1.01 0.82,1.83 1.83,1.83h4.47c2.91,9.88 12.11,16.82 22.47,16.82c4.12,0 8.18,-1.1 11.74,-3.16c0.87,-0.51 1.17,-1.63 0.66,-2.5c-0.33,-0.56 -0.93,-0.92 -1.58,-0.92z" class="shp0"/></svg>