<svg xmlns="http://www.w3.org/2000/svg" viewBox="0 0 47 53" width="47" height="53">
	<style>
		tspan { white-space:pre }
		.shp0 { fill: #273d52 } 
	</style>
	<path id="scissors" class="shp0" d="M43.89,30.51c-1.36,1.36 -3.17,2.11 -5.09,2.11c-1.61,0 -3.13,-0.52 -4.39,-1.49l-8.55,1.71l-23.12,19.27c-0.31,0.26 -0.69,0.39 -1.07,0.39c-0.43,0 -0.86,-0.17 -1.18,-0.49c-0.61,-0.61 -0.66,-1.59 -0.1,-2.26l19.27,-23.12l1.71,-8.55c-0.97,-1.25 -1.49,-2.78 -1.49,-4.39c0,-1.91 0.74,-3.71 2.08,-5.06c0.01,-0.01 0.01,-0.01 0.02,-0.02c0,0 0.01,-0.01 0.01,-0.01c0.09,-0.09 0.18,-0.18 0.28,-0.26c0.35,-0.36 1.14,-1.29 1.21,-2.48c0.06,-0.98 -0.4,-2.01 -1.36,-3.05c-0.63,-0.68 -0.58,-1.74 0.1,-2.37c0.68,-0.63 1.74,-0.58 2.37,0.1c1.61,1.75 2.37,3.63 2.23,5.57c-0.01,0.13 -0.02,0.27 -0.04,0.39c1.94,-0.08 3.92,0.62 5.4,2.1c1.36,1.36 2.11,3.17 2.11,5.09c0,1.92 -0.75,3.73 -2.11,5.09c-1.36,1.36 -3.17,2.11 -5.09,2.11c-0.96,0 -1.89,-0.19 -2.75,-0.54l-1.29,6.47l2.64,2.64l6.47,-1.29c-1.07,-2.61 -0.55,-5.73 1.56,-7.84c1.36,-1.36 3.17,-2.11 5.09,-2.11c1.92,0 3.73,0.75 5.09,2.11c2.81,2.81 2.81,7.38 0,10.18zM27.08,9.85c-0.91,0 -1.82,0.32 -2.55,0.97c-0.08,0.08 -0.15,0.14 -0.2,0.19c-0.71,0.72 -1.1,1.68 -1.1,2.7c0,1.03 0.4,2 1.13,2.72c0.73,0.73 1.69,1.13 2.72,1.13c1.03,0 2,-0.4 2.72,-1.13c0,0 0,0 0,0c0.73,-0.73 1.13,-1.69 1.13,-2.72c0,-1.03 -0.4,-2 -1.13,-2.72c-0.75,-0.75 -1.74,-1.13 -2.72,-1.13zM22.64,31.17l-1.31,-1.31l-6.57,7.89zM41.53,22.7c-0.73,-0.73 -1.69,-1.13 -2.72,-1.13c-1.03,0 -2,0.4 -2.72,1.13c-1.5,1.5 -1.5,3.95 0,5.45c0.73,0.73 1.69,1.13 2.72,1.13c1.03,0 2,-0.4 2.72,-1.13c1.5,-1.5 1.5,-3.95 0,-5.45z" />
</svg>