<svg xmlns="http://www.w3.org/2000/svg" viewBox="0 0 60 58" width="60" height="58">
	<style>
		tspan { white-space:pre }
		.shp0 { fill: #273d52 } 
	</style>
	<path id="star" class="shp0" d="M12.09,58c-0.22,0 -0.44,-0.07 -0.63,-0.2c-0.33,-0.24 -0.49,-0.65 -0.42,-1.05l3.31,-19.29l-14.02,-13.66c-0.29,-0.28 -0.4,-0.71 -0.27,-1.1c0.13,-0.39 0.46,-0.67 0.87,-0.73l19.37,-2.82l8.66,-17.55c0.18,-0.37 0.55,-0.6 0.96,-0.6c0.41,0 0.78,0.23 0.96,0.6l8.66,17.55l19.37,2.82c0.4,0.06 0.74,0.34 0.87,0.73c0.13,0.39 0.02,0.81 -0.27,1.1l-14.02,13.66l3.31,19.29c0.07,0.4 -0.1,0.81 -0.43,1.05c-0.33,0.24 -0.77,0.27 -1.13,0.08l-17.32,-9.11l-17.33,9.11c-0.16,0.08 -0.33,0.12 -0.5,0.12zM3.37,23.77l12.87,12.54c0.25,0.25 0.37,0.6 0.31,0.95l-3.04,17.71l15.9,-8.36c0.31,-0.16 0.68,-0.16 1,0l15.9,8.36l-3.04,-17.71c-0.06,-0.35 0.06,-0.7 0.31,-0.95l12.87,-12.54l-17.78,-2.58c-0.35,-0.05 -0.65,-0.27 -0.81,-0.59l-7.95,-16.11l-7.95,16.11c-0.16,0.32 -0.46,0.54 -0.81,0.59z" />
</svg>