<svg xmlns="http://www.w3.org/2000/svg" width="88" height="88" viewBox="0 0 88 88"><style>.shp0{fill:#273d52}</style><path id="Path 72" d="M26.4,35.39l-6.12,6.12l19.66,19.66l43.69,-43.69l-6.12,-6.12l-37.57,37.57zM79.26,43.69c0,19.22 -15.73,34.95 -34.95,34.95c-19.22,0 -34.95,-15.73 -34.95,-34.95c0,-19.22 15.73,-34.95 34.95,-34.95c3.49,0 6.55,0.44 9.61,1.31l6.99,-6.99c-5.24,-1.75 -10.92,-3.06 -16.6,-3.06c-24.03,0 -43.69,19.66 -43.69,43.69c0,24.03 19.66,43.69 43.69,43.69c24.03,0 43.69,-19.66 43.69,-43.69z" class="shp0"/></svg>