<svg xmlns="http://www.w3.org/2000/svg" viewBox="0 0 16 18" width="16" height="18">
	<style>
		tspan { white-space:pre }
		.shp0 { fill: #273d52 } 
	</style>
	<path id="Path 62" class="shp0" d="M14.87,15.11c-0.12,0 -0.23,0.03 -0.34,0.09c-1.1,0.64 -2.36,0.98 -3.64,0.98c-3.09,0 -5.82,-2.01 -6.84,-4.84h6.23c0.37,0 0.67,-0.3 0.67,-0.67c0,-0.37 -0.3,-0.67 -0.67,-0.67h-6.56c-0.05,-0.4 -0.08,-0.72 -0.08,-1.08c0,-0.35 0.03,-0.67 0.08,-1.08h6.56c0.37,0 0.67,-0.3 0.67,-0.67c0,-0.37 -0.3,-0.67 -0.67,-0.67h-6.23c1.03,-2.96 3.75,-4.84 6.84,-4.84c1.28,0 2.53,0.34 3.64,0.98c0.1,0.06 0.22,0.09 0.34,0.09c0.24,0 0.46,-0.13 0.58,-0.34c0.19,-0.32 0.08,-0.73 -0.24,-0.92c-1.31,-0.76 -2.8,-1.16 -4.31,-1.16c-3.81,0 -7.19,2.56 -8.26,6.19h-1.64c-0.37,0 -0.67,0.3 -0.67,0.67c0,0.37 0.3,0.67 0.67,0.67h1.36c-0.05,0.4 -0.07,0.72 -0.07,1.08c0,0.35 0.02,0.67 0.07,1.08h-1.36c-0.37,0 -0.67,0.3 -0.67,0.67c0,0.37 0.3,0.67 0.67,0.67h1.64c1.07,3.63 4.45,6.18 8.26,6.18c1.51,0 3,-0.4 4.31,-1.16c0.32,-0.19 0.43,-0.6 0.24,-0.92c-0.12,-0.21 -0.34,-0.34 -0.58,-0.34z" />
</svg>