<svg xmlns="http://www.w3.org/2000/svg" viewBox="0 0 22 26" width="22" height="26">
	<style>
		tspan { white-space:pre }
		.shp0 { fill: #273d52 } 
	</style>
	<path id="scissors" class="shp0" d="M20.52,15.26c-0.64,0.64 -1.48,0.99 -2.38,0.99c-0.75,0 -1.46,-0.25 -2.05,-0.7l-3.99,0.8l-10.81,9.01c-0.15,0.12 -0.32,0.18 -0.5,0.18c-0.2,0 -0.4,-0.08 -0.55,-0.23c-0.29,-0.29 -0.31,-0.74 -0.05,-1.05l9.01,-10.81l0.8,-3.99c-0.45,-0.59 -0.7,-1.3 -0.7,-2.05c0,-0.89 0.35,-1.73 0.97,-2.37c0,0 0,-0.01 0.01,-0.01c0,0 0,0 0.01,-0.01c0.04,-0.04 0.09,-0.08 0.13,-0.12c0.17,-0.17 0.53,-0.61 0.57,-1.16c0.03,-0.46 -0.19,-0.94 -0.63,-1.43c-0.29,-0.32 -0.27,-0.81 0.05,-1.11c0.32,-0.29 0.81,-0.27 1.11,0.05c0.75,0.82 1.11,1.69 1.04,2.6c0,0.06 -0.01,0.12 -0.02,0.18c0.91,-0.04 1.83,0.29 2.52,0.98c0.64,0.64 0.99,1.48 0.99,2.38c0,0.9 -0.35,1.74 -0.99,2.38c-0.64,0.64 -1.48,0.99 -2.38,0.99c-0.45,0 -0.88,-0.09 -1.29,-0.25l-0.6,3.02l1.23,1.23l3.03,-0.6c-0.5,-1.22 -0.26,-2.68 0.73,-3.67c0.64,-0.64 1.48,-0.99 2.38,-0.99c0.9,0 1.74,0.35 2.38,0.99c1.31,1.31 1.31,3.45 0,4.76zM12.66,5.6c-0.43,0 -0.85,0.15 -1.19,0.45c-0.04,0.04 -0.07,0.07 -0.09,0.09c-0.33,0.34 -0.52,0.79 -0.52,1.26c0,0.48 0.19,0.93 0.53,1.27c0.34,0.34 0.79,0.53 1.27,0.53c0.48,0 0.93,-0.19 1.27,-0.53c0.34,-0.34 0.53,-0.79 0.53,-1.27c0,-0.48 -0.19,-0.93 -0.53,-1.27c-0.35,-0.35 -0.81,-0.53 -1.27,-0.53zM10.58,15.57l-0.61,-0.61l-3.07,3.69zM19.41,11.61c-0.34,-0.34 -0.79,-0.53 -1.27,-0.53c-0.48,0 -0.93,0.19 -1.27,0.53c-0.7,0.7 -0.7,1.84 0,2.55c0.34,0.34 0.79,0.53 1.27,0.53c0.48,0 0.93,-0.19 1.27,-0.53c0.7,-0.7 0.7,-1.84 0,-2.55z" />
</svg>