<svg xmlns="http://www.w3.org/2000/svg" width="22" height="22" viewBox="0 0 22 22"><style>.shp0{fill:#273d52}</style><path id="star" d="M4.44,21.96c-0.08,0 -0.16,-0.03 -0.23,-0.08c-0.12,-0.09 -0.18,-0.24 -0.16,-0.39l1.22,-7.1l-5.15,-5.02c-0.11,-0.1 -0.15,-0.26 -0.1,-0.4c0.05,-0.14 0.17,-0.25 0.32,-0.27l7.12,-1.04l3.19,-6.46c0.07,-0.13 0.2,-0.22 0.35,-0.22c0.15,0 0.29,0.09 0.35,0.22l3.19,6.46l7.12,1.04c0.15,0.02 0.27,0.13 0.32,0.27c0.05,0.14 0.01,0.3 -0.1,0.4l-5.15,5.03l1.22,7.09c0.03,0.15 -0.04,0.3 -0.16,0.39c-0.12,0.09 -0.28,0.1 -0.42,0.03l-6.37,-3.35l-6.37,3.35c-0.06,0.03 -0.12,0.05 -0.18,0.05zM1.24,9.37l4.73,4.61c0.09,0.09 0.14,0.22 0.11,0.35l-1.12,6.51l5.85,-3.07c0.11,-0.06 0.25,-0.06 0.37,0l5.85,3.07l-1.12,-6.51c-0.02,-0.13 0.02,-0.26 0.11,-0.35l4.73,-4.61l-6.54,-0.95c-0.13,-0.02 -0.24,-0.1 -0.3,-0.22l-2.92,-5.92l-2.92,5.93c-0.06,0.12 -0.17,0.2 -0.3,0.22z" class="shp0"/></svg>