<svg xmlns="http://www.w3.org/2000/svg" width="25" height="22" viewBox="0 0 25 22"><style>.shp0{fill:#273d52}</style><path id="Path 75" d="M22.29,2.69c-1.13,-1.13 -2.7,-1.69 -4.7,-1.69c-0.55,0 -1.12,0.1 -1.69,0.29c-0.58,0.2 -1.11,0.46 -1.61,0.79c-0.5,0.34 -0.92,0.65 -1.28,0.94c-0.36,0.29 -0.7,0.6 -1.02,0.93c-0.32,-0.33 -0.66,-0.64 -1.02,-0.93c-0.36,-0.29 -0.78,-0.6 -1.28,-0.94c-0.5,-0.33 -1.03,-0.6 -1.61,-0.79c-0.58,-0.2 -1.14,-0.29 -1.69,-0.29c-2,0 -3.57,0.56 -4.7,1.69c-1.13,1.13 -1.7,2.7 -1.7,4.7c0,0.61 0.1,1.24 0.31,1.89c0.21,0.65 0.45,1.2 0.72,1.66c0.27,0.45 0.57,0.9 0.91,1.34c0.34,0.43 0.59,0.73 0.75,0.89c0.15,0.16 0.28,0.28 0.37,0.35l8.36,8.23c0.16,0.16 0.36,0.24 0.59,0.24c0.23,0 0.43,-0.08 0.59,-0.24l8.34,-8.2c2.04,-2.09 3.07,-4.14 3.07,-6.15c0,-2.01 -0.57,-3.57 -1.71,-4.7z" class="shp0"/></svg>