<svg xmlns="http://www.w3.org/2000/svg" viewBox="0 0 24 20" width="24" height="20">
	<style>
		tspan { white-space:pre }
		.shp0 { fill: #273d52 } 
	</style>
	<path id="Path 74" class="shp0" d="M23.5,6.12c0,1.89 -0.96,3.82 -2.88,5.78l-7.83,7.7c-0.15,0.15 -0.34,0.23 -0.55,0.23c-0.22,0 -0.4,-0.08 -0.55,-0.23l-7.85,-7.73c-0.08,-0.07 -0.2,-0.18 -0.35,-0.33c-0.15,-0.15 -0.38,-0.43 -0.7,-0.84c-0.32,-0.41 -0.6,-0.82 -0.86,-1.25c-0.25,-0.43 -0.48,-0.95 -0.67,-1.55c-0.2,-0.61 -0.3,-1.2 -0.3,-1.77c0,-1.88 0.53,-3.35 1.6,-4.42c1.06,-1.06 2.54,-1.59 4.41,-1.59c0.52,0 1.05,0.09 1.59,0.28c0.54,0.18 1.04,0.43 1.51,0.74c0.47,0.31 0.87,0.61 1.2,0.88c0.34,0.27 0.65,0.56 0.96,0.87c0.3,-0.31 0.62,-0.6 0.96,-0.87c0.34,-0.27 0.74,-0.57 1.2,-0.88c0.47,-0.31 0.97,-0.56 1.51,-0.74c0.54,-0.18 1.07,-0.28 1.59,-0.28c1.88,0 3.35,0.53 4.41,1.59c1.06,1.06 1.6,2.53 1.6,4.42zM21.89,6.12c0,-0.69 -0.09,-1.31 -0.27,-1.84c-0.18,-0.53 -0.41,-0.95 -0.69,-1.26c-0.28,-0.31 -0.62,-0.57 -1.03,-0.76c-0.4,-0.2 -0.8,-0.33 -1.18,-0.4c-0.39,-0.07 -0.8,-0.1 -1.23,-0.1c-0.44,0 -0.91,0.11 -1.41,0.33c-0.5,0.22 -0.97,0.49 -1.39,0.82c-0.42,0.33 -0.79,0.64 -1.09,0.92c-0.3,0.29 -0.55,0.55 -0.75,0.79c-0.15,0.19 -0.36,0.28 -0.62,0.28c-0.26,0 -0.47,-0.09 -0.62,-0.28c-0.2,-0.24 -0.45,-0.5 -0.75,-0.79c-0.3,-0.29 -0.66,-0.59 -1.09,-0.92c-0.42,-0.33 -0.89,-0.6 -1.39,-0.82c-0.5,-0.22 -0.97,-0.33 -1.41,-0.33c-0.44,0 -0.85,0.03 -1.23,0.1c-0.39,0.07 -0.78,0.2 -1.18,0.4c-0.4,0.2 -0.74,0.45 -1.03,0.76c-0.28,0.31 -0.51,0.73 -0.69,1.26c-0.18,0.53 -0.27,1.14 -0.27,1.84c0,1.44 0.78,2.96 2.35,4.56l7.31,7.19l7.29,-7.18c1.58,-1.61 2.36,-3.13 2.36,-4.57z" />
</svg>