<svg xmlns="http://www.w3.org/2000/svg" width="14" height="14" viewBox="0 0 14 14"><style>.shp0{fill:#d1d9da}</style><path id="Shape" d="M13.18,13.9c-0.18,0 -0.35,-0.07 -0.48,-0.2l-2.54,-2.54c-1.09,0.87 -2.46,1.35 -3.86,1.35c-1.65,0 -3.2,-0.64 -4.37,-1.81c-1.17,-1.19 -1.81,-2.74 -1.81,-4.37c0,-1.65 0.64,-3.2 1.81,-4.37c1.19,-1.17 2.74,-1.81 4.37,-1.81c1.65,0 3.2,0.64 4.37,1.81c1.07,1.06 1.71,2.49 1.79,4.02c0.08,1.53 -0.39,3.01 -1.33,4.19l2.54,2.54c0.26,0.28 0.25,0.7 -0.02,0.99c-0.11,0.13 -0.28,0.2 -0.48,0.2zM6.32,1.5c-1.29,0 -2.5,0.5 -3.4,1.4c-0.9,0.9 -1.4,2.11 -1.4,3.4c0,1.29 0.5,2.49 1.4,3.4c0.9,0.9 2.11,1.4 3.4,1.4c1.29,0 2.49,-0.5 3.4,-1.4c0.9,-0.9 1.4,-2.11 1.4,-3.4c0,-1.29 -0.5,-2.49 -1.4,-3.4c-0.9,-0.9 -2.11,-1.4 -3.4,-1.4z" class="shp0"/></svg>